<svg width="24" height="24" viewBox="0 0 24 24" fill="none" xmlns="http://www.w3.org/2000/svg">
    <g clip-path="url(#clip0)">
        <path d="M1.59723 0.320916C1.23175 -0.0445635 0.639405 -0.0445635 0.274109 0.320916C-0.0913697 0.686212 -0.0913697 1.27874 0.274109 1.64404L4.45624 5.82618C2.37506 7.53748 1.03088 9.60511 0.377198 10.7689C-0.062439 11.5517 -0.0661011 12.4883 0.367493 13.2742C0.930543 14.295 2.16229 16.2586 4.08417 17.9394C6.43012 19.9911 9.08424 21.0371 11.9735 21.0507C11.9777 21.0507 11.9817 21.0512 11.9859 21.0512C11.994 21.0512 12.002 21.0511 12.0101 21.0511C12.0165 21.0511 12.0231 21.0512 12.0297 21.0512C14.1495 21.0512 16.1572 20.4884 18.0072 19.3773L22.3545 23.7244C22.5372 23.9071 22.7765 23.9985 23.016 23.9985C23.2555 23.9985 23.4948 23.9071 23.6776 23.7244C24.0431 23.3591 24.0431 22.7666 23.6776 22.4013L1.59723 0.320916ZM8.85005 10.22L10.2061 11.5761C10.1598 11.7647 10.1413 11.9643 10.1572 12.1706C10.2272 13.0816 10.9638 13.818 11.8748 13.8881C12.0811 13.9039 12.2807 13.8854 12.4693 13.8393L13.8258 15.1957C12.4277 15.9942 10.6295 15.7891 9.44276 14.6026C8.26209 13.4221 8.05482 11.6178 8.85005 10.22ZM2.00592 12.3704C1.88745 12.1556 1.88855 11.8994 2.00885 11.6852C2.6098 10.6151 3.85932 8.69325 5.78614 7.15607L7.4947 8.86463C5.98298 11.0273 6.21021 14.0165 8.11964 15.9257C9.19758 17.0039 10.6097 17.5466 12.024 17.5466C13.1276 17.5466 14.2324 17.2157 15.1809 16.5509L16.621 17.991C15.178 18.7762 13.6318 19.1755 12.0115 19.1797C6.36603 19.1696 3.13404 14.4157 2.00592 12.3704ZM8.31538 4.60504C8.17493 4.10773 8.46406 3.59082 8.96137 3.45019C10.0479 3.14331 11.0515 2.9939 12.0295 2.9939C14.9097 2.9939 17.5692 4.04254 19.934 6.11072C21.8553 7.79109 23.0993 9.7527 23.6697 10.7724C24.1066 11.553 24.1103 12.487 23.6796 13.2707C23.6426 13.3381 23.5977 13.4 23.5467 13.4551C23.1348 14.1804 22.4813 15.2067 21.5759 16.2682C21.3908 16.4851 21.128 16.5966 20.8636 16.5966C20.6488 16.5966 20.4329 16.5232 20.2568 16.3729C19.8637 16.0374 19.817 15.4469 20.1522 15.0538C21.0343 14.02 21.6491 13.0239 22.0095 12.3704C22.0344 12.3253 22.0628 12.2829 22.0941 12.2429C22.1527 12.0593 22.1334 11.859 22.0368 11.6861C20.8894 9.63514 17.6175 4.86524 12.0295 4.86524C11.226 4.86524 10.3889 4.9914 9.47004 5.25086C8.97291 5.3913 8.45582 5.10236 8.31538 4.60504ZM12.1351 6.50385C13.5668 6.53278 14.913 7.10664 15.926 8.11939C16.9684 9.162 17.5426 10.5481 17.5426 12.0227C17.5426 12.5394 17.1239 12.9581 16.6069 12.9581C16.0902 12.9581 15.6715 12.5394 15.6715 12.0227C15.6715 11.048 15.2919 10.1317 14.6027 9.44252C13.9332 8.77308 13.0433 8.39387 12.0971 8.37464C11.5805 8.36421 11.1702 7.93684 11.1806 7.4203C11.1912 6.90357 11.6171 6.49341 12.1351 6.50385Z" fill="#555B6F"/>
    </g>
    <defs>
        <clipPath id="clip0">
            <rect width="24" height="24" fill="white"/>
        </clipPath>
    </defs>
</svg>
