<svg width="96" height="44" viewBox="0 0 96 44" fill="none" xmlns="http://www.w3.org/2000/svg">
<path d="M13.104 10.46V18.188C13.748 18.384 14.336 18.608 14.98 18.86V19H8.988V18.86C9.604 18.608 10.248 18.384 10.864 18.188V10.46C10.864 8.22 9.996 6.904 8.008 6.904C6.888 6.904 5.852 7.408 4.816 8.556V18.188C5.432 18.384 6.048 18.608 6.692 18.86V19H0.672V18.86C1.288 18.608 1.932 18.384 2.576 18.188V8.192L0.672 7.464V7.324C1.96 6.876 3.276 6.512 4.76 6.232L4.564 8.248C5.74 6.848 7.308 6.148 9.016 6.148C11.732 6.148 13.104 7.94 13.104 10.46ZM19.1465 3.096C18.2505 3.096 17.6345 2.452 17.6345 1.584C17.6345 0.687999 18.2505 0.0439987 19.1465 0.0439987C20.0425 0.0439987 20.6585 0.687999 20.6585 1.584C20.6585 2.452 20.0425 3.096 19.1465 3.096ZM20.2665 6.26V18.188C20.8825 18.384 21.4985 18.608 22.1425 18.86V19H16.1225V18.86C16.7665 18.608 17.3825 18.384 18.0265 18.188V8.248L16.1225 7.52V7.38C17.4385 6.932 18.7825 6.54 20.2665 6.26ZM34.0353 16.816L34.1193 16.9C33.1113 18.412 31.4873 19.28 29.5273 19.28C26.0833 19.28 23.7313 16.648 23.7313 12.84C23.7313 8.948 26.2793 6.148 29.8353 6.148C31.4033 6.148 32.8593 6.484 34.2033 7.128C34.1473 8.444 34.0353 9.536 33.8673 10.74H33.7273L31.6273 7.072C31.0953 6.708 30.5073 6.512 29.7513 6.512C27.5673 6.512 26.0833 8.808 26.0833 12.168C26.0833 15.696 27.8473 17.992 30.7033 17.992C31.8793 17.992 33.1113 17.516 34.0353 16.816ZM46.7847 16.816L46.8687 16.9C45.9167 18.356 44.3487 19.28 42.1647 19.28C38.5247 19.28 36.1727 16.676 36.1727 12.756C36.1727 8.332 39.1687 6.148 41.9407 6.148C44.8247 6.148 46.7847 8.444 46.7847 11.328V11.804H38.5527C38.5527 16.368 40.6527 17.992 43.3407 17.992C44.6847 17.992 45.8047 17.544 46.7847 16.816ZM41.7167 6.512C39.9247 6.512 38.6647 8.08 38.5527 11.328H44.3767C44.3767 7.968 43.4247 6.512 41.7167 6.512ZM31.3386 22.188V24.932H28.0906C29.2666 25.716 29.9666 26.948 29.9666 28.516C29.9666 31.26 27.8386 32.912 24.2826 32.912C22.9386 32.912 21.8186 32.688 20.9226 32.212C20.3346 32.492 20.0826 32.884 20.0826 33.36C20.0826 34.032 20.6426 34.48 21.7906 34.48H26.9426C29.6586 34.48 31.1706 36.076 31.1706 38.204C31.1706 41.34 27.9506 43.048 24.1426 43.048C19.8866 43.048 17.7306 41.984 17.7306 40.052C17.7306 38.652 18.9626 37.868 20.7826 37.56C19.1586 37.308 18.2066 36.244 18.2066 34.76C18.2066 33.36 19.1306 32.436 20.3906 31.932C19.2706 31.204 18.6266 30.028 18.6266 28.544C18.6266 25.604 20.8106 23.952 24.3106 23.952C25.4026 23.952 26.3826 24.12 27.1946 24.456C28.3986 23.476 29.6866 22.776 31.3386 22.188ZM24.3106 32.492C25.4586 32.492 26.0746 31.456 26.0746 28.488C26.0746 25.352 25.4586 24.372 24.3106 24.372C23.1906 24.372 22.5466 25.352 22.5466 28.488C22.5466 31.456 23.1906 32.492 24.3106 32.492ZM25.6546 37.644H21.6506H21.4826C21.1746 38.008 21.0346 38.624 21.0346 39.38C21.0346 41.228 22.0986 42.572 24.2266 42.572C26.6626 42.572 28.0626 41.452 28.0626 39.828C28.0626 38.512 27.1386 37.644 25.6546 37.644ZM47.2308 35.88L47.3428 36.076C46.6988 36.916 45.7748 37.28 44.5148 37.28C42.9468 37.28 41.8548 36.552 41.5468 35.432C40.5108 36.608 38.9988 37.28 37.4868 37.28C34.8548 37.28 33.5108 35.796 33.5108 33.22V26.64L31.9988 25.8V25.632C33.5388 25.072 35.7228 24.484 37.4588 24.176V33.668C37.4588 35.04 37.9628 36.02 39.3628 36.02C40.0628 36.02 40.7068 35.712 41.3788 35.012V26.64L39.8948 25.8V25.632C41.4068 25.072 43.5908 24.484 45.3268 24.176V34.872C45.3268 35.74 45.7468 36.048 46.3348 36.048C46.5868 36.048 46.8668 35.992 47.2308 35.88ZM51.5574 22.02C50.1294 22.02 49.1494 21.012 49.1494 19.64C49.1494 18.24 50.1294 17.26 51.5574 17.26C52.9854 17.26 53.9374 18.24 53.9374 19.64C53.9374 21.012 52.9854 22.02 51.5574 22.02ZM53.5454 24.008V35.992C54.1054 36.3 54.5254 36.58 54.9734 36.916V37H48.0014V36.916C48.5054 36.58 48.9814 36.3 49.5974 35.992V26.584L48.0014 25.632V25.492C49.5134 24.904 51.8094 24.316 53.5454 24.008ZM70.9078 35.88L71.0198 36.076C70.3758 36.916 69.4518 37.28 68.2758 37.28C66.7078 37.28 65.5878 36.636 65.2238 35.488C64.2158 36.608 62.9558 37.28 61.3598 37.28C58.6438 37.28 56.3758 35.096 56.3758 30.98C56.3758 26.108 59.3438 23.952 62.9838 23.952C63.7958 23.952 64.4118 24.036 65.0838 24.26V19.724L63.5158 18.856V18.716C65.0558 18.156 67.2958 17.54 69.0318 17.232V34.872C69.0318 35.74 69.4518 36.048 70.0398 36.048C70.2638 36.048 70.5438 35.992 70.9078 35.88ZM63.0678 36.02C63.8518 36.02 64.4398 35.74 65.0838 34.956V25.24C64.5238 24.736 63.9918 24.512 63.3478 24.512C61.6398 24.512 60.5478 26.052 60.5478 30.504C60.5478 34.928 61.6398 36.02 63.0678 36.02ZM83.4684 34.06L83.5524 34.144C82.6284 36.02 80.8084 37.28 78.2044 37.28C74.4524 37.28 71.9604 34.704 71.9604 30.784C71.9604 26.388 75.0964 23.952 78.2884 23.952C81.4244 23.952 83.5244 26.276 83.5244 29.132V29.664H75.9924C76.1324 33.584 77.7284 35.068 80.3604 35.068C81.5924 35.068 82.5444 34.704 83.4684 34.06ZM78.0924 24.372C76.8044 24.372 75.9644 25.8 75.9644 28.964V29.132H79.8844C79.8844 25.716 79.3244 24.372 78.0924 24.372ZM89.7321 37.28C88.3881 37.28 86.4001 37.028 85.2801 36.356C85.3641 35.18 85.5041 33.556 85.6441 32.464H85.7841L88.8081 36.608C89.1441 36.776 89.4801 36.86 89.9001 36.86C91.0761 36.86 91.9161 36.132 91.9161 34.9C91.9161 31.456 85.4201 32.128 85.4201 27.9C85.4201 25.156 87.9121 23.952 91.1321 23.952C92.6721 23.952 94.0721 24.288 95.2481 24.876C95.1921 25.996 95.0241 27.48 94.9121 28.6H94.7721L91.7761 24.624C91.4121 24.428 91.2161 24.372 90.9081 24.372C89.6761 24.372 89.0321 25.1 89.0321 26.136C89.0321 29.412 95.5561 29.02 95.5561 33.528C95.5561 36.3 92.9801 37.28 89.7321 37.28Z" fill="white"/>
</svg>
