<svg width="109" height="49" viewBox="0 0 109 49" fill="none" xmlns="http://www.w3.org/2000/svg">
<path d="M14.8602 12.3155V21.0792C15.5905 21.3014 16.2573 21.5555 16.9876 21.8412V22H10.1926V21.8412C10.8911 21.5555 11.6214 21.3014 12.32 21.0792V12.3155C12.32 9.77526 11.3357 8.28289 9.08124 8.28289C7.81113 8.28289 6.63629 8.85443 5.46144 10.1563V21.0792C6.16 21.3014 6.85856 21.5555 7.58887 21.8412V22H0.762062V21.8412C1.46062 21.5555 2.19093 21.3014 2.92124 21.0792V9.74351L0.762062 8.91794V8.75918C2.22268 8.25113 3.71505 7.83835 5.39794 7.52082L5.17567 9.80701C6.50928 8.21938 8.28742 7.42557 10.2243 7.42557C13.3043 7.42557 14.8602 9.45773 14.8602 12.3155ZM21.7126 3.96454C20.6965 3.96454 19.9979 3.23423 19.9979 2.2499C19.9979 1.23381 20.6965 0.503505 21.7126 0.503505C22.7286 0.503505 23.4272 1.23381 23.4272 2.2499C23.4272 3.23423 22.7286 3.96454 21.7126 3.96454ZM22.9827 7.55258V21.0792C23.6812 21.3014 24.3798 21.5555 25.1101 21.8412V22H18.2833V21.8412C19.0136 21.5555 19.7121 21.3014 20.4425 21.0792V9.80701L18.2833 8.98144V8.82268C19.7757 8.31464 21.2998 7.8701 22.9827 7.55258ZM38.5967 19.5233L38.692 19.6186C37.5489 21.3332 35.7073 22.3175 33.4846 22.3175C29.579 22.3175 26.9118 19.3328 26.9118 15.0144C26.9118 10.6008 29.8013 7.42557 33.8339 7.42557C35.612 7.42557 37.2631 7.8066 38.7873 8.53691C38.7238 10.0293 38.5967 11.2676 38.4062 12.633H38.2475L35.866 8.4734C35.2627 8.06062 34.5959 7.83835 33.7386 7.83835C31.2619 7.83835 29.579 10.4421 29.579 14.2524C29.579 18.2532 31.5794 20.8569 34.8182 20.8569C36.1518 20.8569 37.5489 20.3171 38.5967 19.5233ZM53.0548 19.5233L53.1501 19.6186C52.0705 21.2697 50.2924 22.3175 47.8157 22.3175C43.6878 22.3175 41.0206 19.3645 41.0206 14.9192C41.0206 9.90227 44.4181 7.42557 47.5616 7.42557C50.8322 7.42557 53.0548 10.0293 53.0548 13.2998V13.8396H43.7196C43.7196 19.0153 46.101 20.8569 49.1493 20.8569C50.6734 20.8569 51.9435 20.3489 53.0548 19.5233ZM47.3076 7.83835C45.2755 7.83835 43.8466 9.6165 43.7196 13.2998H50.3241C50.3241 9.48948 49.2445 7.83835 47.3076 7.83835ZM35.5386 25.2029V28.3146H31.8553C33.1889 29.2037 33.9827 30.6008 33.9827 32.379C33.9827 35.4907 31.5695 37.3641 27.5369 37.3641C26.0128 37.3641 24.7427 37.1101 23.7266 36.5703C23.0598 36.8878 22.774 37.3324 22.774 37.8722C22.774 38.6342 23.4091 39.1423 24.7109 39.1423H30.5534C33.6334 39.1423 35.3481 40.9522 35.3481 43.3654C35.3481 46.9216 31.6965 48.8586 27.3782 48.8586C22.5518 48.8586 20.1068 47.652 20.1068 45.461C20.1068 43.8734 21.5039 42.9843 23.5679 42.6351C21.7262 42.3493 20.6466 41.1427 20.6466 39.4598C20.6466 37.8722 21.6944 36.8243 23.1233 36.2528C21.8532 35.4272 21.1229 34.0936 21.1229 32.4107C21.1229 29.0767 23.5996 27.2033 27.5687 27.2033C28.807 27.2033 29.9184 27.3938 30.8392 27.7748C32.2046 26.6635 33.6652 25.8697 35.5386 25.2029ZM27.5687 36.8878C28.8705 36.8878 29.5691 35.713 29.5691 32.3472C29.5691 28.7909 28.8705 27.6796 27.5687 27.6796C26.2986 27.6796 25.5683 28.7909 25.5683 32.3472C25.5683 35.713 26.2986 36.8878 27.5687 36.8878ZM29.0928 42.7303H24.5522H24.3617C24.0124 43.1431 23.8536 43.8416 23.8536 44.699C23.8536 46.7946 25.0602 48.3188 27.4734 48.3188C30.2359 48.3188 31.8235 47.0487 31.8235 45.207C31.8235 43.7146 30.7757 42.7303 29.0928 42.7303ZM53.5606 40.7299L53.6877 40.9522C52.9573 41.9047 51.9095 42.3175 50.4806 42.3175C48.7025 42.3175 47.4641 41.492 47.1149 40.2219C45.94 41.5555 44.2254 42.3175 42.5107 42.3175C39.526 42.3175 38.0019 40.6346 38.0019 37.7134V30.2515L36.2872 29.299V29.1085C38.0336 28.4734 40.5103 27.8066 42.479 27.4573V38.2214C42.479 39.7773 43.0505 40.8887 44.6382 40.8887C45.432 40.8887 46.1623 40.5394 46.9244 39.7456V30.2515L45.2415 29.299V29.1085C46.9561 28.4734 49.4328 27.8066 51.4015 27.4573V39.5868C51.4015 40.5711 51.8778 40.9204 52.5446 40.9204C52.8303 40.9204 53.1479 40.8569 53.5606 40.7299ZM58.4672 25.0124C56.8478 25.0124 55.7364 23.8693 55.7364 22.3134C55.7364 20.7258 56.8478 19.6144 58.4672 19.6144C60.0865 19.6144 61.1661 20.7258 61.1661 22.3134C61.1661 23.8693 60.0865 25.0124 58.4672 25.0124ZM60.7216 27.2668V40.8569C61.3566 41.2062 61.8329 41.5237 62.341 41.9047V42H54.4346V41.9047C55.0061 41.5237 55.5459 41.2062 56.2445 40.8569V30.188L54.4346 29.1085V28.9497C56.1492 28.2829 58.7529 27.6161 60.7216 27.2668ZM80.4109 40.7299L80.5379 40.9522C79.8076 41.9047 78.7598 42.3175 77.4262 42.3175C75.648 42.3175 74.3779 41.5872 73.9651 40.2854C72.8221 41.5555 71.3932 42.3175 69.5833 42.3175C66.5033 42.3175 63.9313 39.8408 63.9313 35.1732C63.9313 29.6482 67.2971 27.2033 71.4249 27.2033C72.3458 27.2033 73.0443 27.2986 73.8064 27.5526V22.4087L72.0282 21.4243V21.2656C73.7746 20.6305 76.3148 19.932 78.2835 19.5827V39.5868C78.2835 40.5711 78.7598 40.9204 79.4266 40.9204C79.6806 40.9204 79.9981 40.8569 80.4109 40.7299ZM71.5202 40.8887C72.4093 40.8887 73.0761 40.5711 73.8064 39.6821V28.6639C73.1713 28.0924 72.568 27.8384 71.8377 27.8384C69.9008 27.8384 68.6625 29.5847 68.6625 34.6334C68.6625 39.6503 69.9008 40.8887 71.5202 40.8887ZM94.6549 38.666L94.7502 38.7612C93.7023 40.8887 91.6384 42.3175 88.6854 42.3175C84.4306 42.3175 81.6046 39.3963 81.6046 34.9509C81.6046 29.9658 85.1609 27.2033 88.7807 27.2033C92.337 27.2033 94.7184 29.8388 94.7184 33.0775V33.6808H86.177C86.3358 38.1262 88.1456 39.8091 91.1304 39.8091C92.5275 39.8091 93.6071 39.3963 94.6549 38.666ZM88.5584 27.6796C87.0978 27.6796 86.1452 29.299 86.1452 32.887V33.0775H90.5906C90.5906 29.2037 89.9555 27.6796 88.5584 27.6796ZM101.758 42.3175C100.234 42.3175 97.9795 42.0318 96.7094 41.2697C96.8047 39.9361 96.9634 38.0944 97.1222 36.8561H97.281L100.71 41.5555C101.091 41.746 101.472 41.8412 101.949 41.8412C103.282 41.8412 104.235 41.0157 104.235 39.6186C104.235 35.713 96.8682 36.4751 96.8682 31.6804C96.8682 28.5687 99.6942 27.2033 103.346 27.2033C105.092 27.2033 106.68 27.5843 108.013 28.2511C107.95 29.5212 107.759 31.2041 107.632 32.4742H107.474L104.076 27.9654C103.663 27.7431 103.441 27.6796 103.092 27.6796C101.695 27.6796 100.964 28.5052 100.964 29.68C100.964 33.3951 108.363 32.9505 108.363 38.0627C108.363 41.2062 105.441 42.3175 101.758 42.3175Z" fill="black"/>
</svg>
