<svg width="286" height="311" viewBox="0 0 286 311" fill="none" xmlns="http://www.w3.org/2000/svg">
<path d="M38.3003 44.7715C39.2382 44.7661 40.1762 44.7608 41.1426 44.7553C42.1805 44.7532 43.2184 44.7512 44.2563 44.7493C45.351 44.7446 46.4457 44.7397 47.5403 44.7345C51.1361 44.7188 54.7318 44.7111 58.3275 44.7037C59.5689 44.7007 60.8103 44.6976 62.0516 44.6945C67.8899 44.6803 73.7282 44.6697 79.5665 44.6635C86.284 44.6563 93.0014 44.6367 99.7188 44.6066C104.923 44.5841 110.127 44.5731 115.332 44.5707C118.434 44.5689 121.536 44.5624 124.638 44.5435C127.563 44.526 130.489 44.5231 133.415 44.5307C134.48 44.5311 135.545 44.5265 136.61 44.5162C146.288 44.4276 155.38 46.0919 163.996 50.6945C164.492 50.9521 164.988 51.2097 165.499 51.4751C169.473 53.5936 172.968 56.0313 176.345 59.0195C176.953 59.5231 177.561 60.0266 178.187 60.5455C188.747 69.5565 196.613 83.0939 198.628 96.9701C198.747 99.0742 198.735 101.165 198.698 103.272C198.693 103.815 198.688 104.357 198.682 104.916C198.669 106.236 198.649 107.556 198.628 108.876C199.295 108.871 199.962 108.866 200.65 108.861C206.976 108.816 213.301 108.782 219.628 108.761C222.879 108.749 226.13 108.733 229.381 108.708C232.526 108.683 235.671 108.67 238.816 108.664C240.008 108.66 241.201 108.652 242.393 108.64C255.822 108.509 266.904 110.62 276.95 120.172C282.695 126.525 285.766 133.603 285.736 142.187C285.74 142.745 285.744 143.304 285.748 143.88C285.759 145.74 285.76 147.6 285.76 149.46C285.766 150.799 285.772 152.138 285.779 153.477C285.795 157.107 285.802 160.738 285.806 164.368C285.808 166.64 285.813 168.913 285.818 171.185C285.837 179.125 285.846 187.065 285.849 195.005C285.852 202.385 285.874 209.765 285.905 217.144C285.931 223.496 285.942 229.847 285.943 236.199C285.943 239.985 285.95 243.771 285.971 247.557C285.99 251.124 285.992 254.691 285.98 258.258C285.979 259.559 285.984 260.86 285.996 262.161C286.111 275.606 282.947 286.793 273.556 296.909C263.51 306.443 251.976 309.907 238.48 309.896C237.201 309.899 237.201 309.899 235.896 309.903C233.535 309.908 231.174 309.91 228.813 309.91C226.264 309.912 223.715 309.917 221.166 309.922C215.595 309.932 210.024 309.937 204.453 309.94C200.972 309.942 197.491 309.945 194.01 309.949C184.364 309.958 174.718 309.966 165.073 309.968C164.456 309.968 163.839 309.968 163.203 309.969C162.275 309.969 162.275 309.969 161.329 309.969C160.076 309.969 158.823 309.97 157.57 309.97C156.948 309.97 156.327 309.97 155.686 309.971C145.62 309.973 135.554 309.986 125.488 310.004C115.144 310.021 104.8 310.031 94.4554 310.032C88.6514 310.032 82.8475 310.037 77.0435 310.05C72.1002 310.062 67.1569 310.065 62.2135 310.059C59.6941 310.056 57.1749 310.058 54.6554 310.067C51.9167 310.077 49.1783 310.073 46.4395 310.065C45.2605 310.074 45.2605 310.074 44.0577 310.083C31.3606 309.999 20.4915 305.108 11.3585 296.38C3.06479 287.678 -0.0571816 276.748 0.0238787 264.932C0.0204025 264.136 0.0169254 263.341 0.0133439 262.521C0.00452658 259.882 0.0114703 257.244 0.0185065 254.605C0.015484 252.702 0.0115147 250.799 0.00667391 248.897C-0.00240547 244.281 -0.00111389 239.666 0.00536485 235.051C0.0104132 231.298 0.0110732 227.546 0.00865451 223.793C0.00831306 223.258 0.00797209 222.722 0.00762029 222.17C0.00690778 221.082 0.00618498 219.993 0.00545269 218.905C-0.000888805 208.719 0.00638613 198.532 0.018379 188.346C0.0283377 179.618 0.026599 170.889 0.0163304 162.161C0.00439032 152.007 -0.000282468 141.853 0.00655207 131.699C0.00726186 130.615 0.00796335 129.531 0.00865451 128.448C0.00899828 127.914 0.00934303 127.381 0.00969722 126.832C0.0116164 123.086 0.00838328 119.339 0.00312925 115.593C-0.00379307 110.547 0.00117459 105.501 0.0140353 100.454C0.0169765 98.6047 0.0161444 96.7551 0.0112216 94.9055C0.00511225 92.3765 0.012795 89.848 0.0238787 87.319C0.0189079 86.5911 0.0139374 85.8631 0.00881601 85.1132C0.0994898 74.4112 4.59327 65.4771 11.8895 57.7899C19.1983 50.646 27.7981 44.8124 38.3003 44.7715Z" fill="#5DB19F"/>
<path d="M38.3638 41.3656C39.304 41.3603 40.2443 41.355 41.213 41.3495C42.2534 41.3474 43.2939 41.3454 44.3343 41.3435C45.4316 41.3388 46.529 41.3339 47.6263 41.3287C51.2308 41.3131 54.8353 41.3054 58.4397 41.2981C59.6841 41.2951 60.9285 41.292 62.1729 41.2889C68.0254 41.2748 73.8779 41.2643 79.7304 41.2581C86.4643 41.2509 93.198 41.2314 99.9318 41.2014C105.149 41.179 110.366 41.1681 115.583 41.1657C118.692 41.1639 121.802 41.1574 124.911 41.1387C127.844 41.1213 130.777 41.1184 133.71 41.1259C134.777 41.1263 135.845 41.1217 136.912 41.1114C146.614 41.0233 155.728 42.68 164.365 47.2614C164.863 47.5178 165.36 47.7742 165.872 48.0384C169.856 50.1471 173.359 52.5737 176.744 55.548C177.354 56.0493 177.963 56.5506 178.591 57.0671C189.177 66.0366 197.061 79.5118 199.082 93.3242C199.201 95.4186 199.189 97.5002 199.151 99.597C199.146 100.137 199.141 100.677 199.136 101.234C199.123 102.548 199.103 103.862 199.082 105.176C198.258 105.177 197.434 105.178 196.585 105.179C176.518 105.206 156.45 105.25 136.383 105.312C126.678 105.341 116.974 105.365 107.269 105.376C98.8084 105.386 90.3476 105.406 81.8867 105.438C77.4089 105.455 72.9312 105.467 68.4534 105.466C64.2334 105.465 60.0136 105.479 55.7937 105.502C54.2501 105.509 52.7064 105.51 51.1628 105.506C36.6781 105.472 24.7959 107.908 13.8927 118.204C6.1354 126.344 3.00901 135.794 1.02251 146.655C0.776794 146.655 0.531082 146.655 0.277923 146.655C0.226055 137.512 0.186419 128.368 0.162187 119.225C0.150555 114.979 0.134787 110.733 0.109411 106.487C0.0850529 102.385 0.0717632 98.2837 0.0659901 94.1821C0.0618784 92.6211 0.0538495 91.0602 0.0417476 89.4992C0.0254164 87.3046 0.0233056 85.1103 0.0243362 82.9156C0.0163052 82.2773 0.0082743 81.639 0 80.9814C0.0523778 70.6019 4.80222 61.738 11.8888 54.3241C19.2154 47.2131 27.8361 41.4063 38.3638 41.3656Z" fill="#207C6B"/>
<path d="M284.855 192.618C285.1 192.618 285.345 192.618 285.597 192.618C285.684 203.018 285.749 213.418 285.79 223.817C285.809 228.648 285.835 233.477 285.877 238.307C285.918 242.976 285.94 247.644 285.949 252.313C285.956 254.087 285.97 255.86 285.99 257.634C286.158 273.037 284.412 285.213 273.628 296.964C263.589 306.604 252.061 310.117 238.572 310.08C237.72 310.081 236.867 310.081 235.989 310.082C233.629 310.083 231.269 310.081 228.91 310.077C226.363 310.074 223.815 310.075 221.268 310.075C216.857 310.076 212.447 310.073 208.036 310.069C201.658 310.063 195.281 310.061 188.904 310.06C178.557 310.058 168.21 310.053 157.863 310.046C147.812 310.039 137.762 310.034 127.711 310.031C126.782 310.031 126.782 310.031 125.833 310.03C122.725 310.029 119.616 310.028 116.508 310.027C90.7238 310.02 64.94 310.006 39.1562 309.989C39.1562 309.741 39.1562 309.493 39.1562 309.237C39.838 309.237 40.5198 309.236 41.2222 309.236C57.8264 309.225 74.4303 309.193 91.0344 309.138C99.0641 309.112 107.094 309.093 115.123 309.09C122.124 309.088 129.124 309.072 136.124 309.041C139.829 309.025 143.534 309.016 147.24 309.022C150.731 309.027 154.222 309.015 157.713 308.99C158.99 308.984 160.268 308.984 161.546 308.991C171.776 309.043 178.362 307.067 185.939 299.797C193.027 291.991 196.288 281.563 196.734 271.134C197.281 258.507 200.677 246.756 209.883 237.761C217.469 230.971 225.979 228.632 235.91 228.403C249.69 227.859 263.618 224.739 273.721 214.437C278.951 208.241 283.814 200.831 284.855 192.618Z" fill="#156857"/>
<path d="M147.833 0.264802C148.755 0.28107 148.755 0.28107 149.696 0.297666C172.562 0.976508 193.131 10.3652 210.383 24.9961C210.911 25.4213 211.439 25.8466 211.982 26.2847C216.263 29.812 219.62 33.9475 223.014 38.3094C223.503 38.9158 223.993 39.5222 224.497 40.1469C234.318 52.8154 243.015 70.0437 241.589 86.3852C240.071 89.9739 237.875 91.7634 234.368 93.3135C230.78 94.3042 227.209 94.002 223.859 92.3658C219.952 89.5288 219.033 85.415 217.973 80.994C213.258 61.69 201.634 45.8004 184.75 35.166C171.735 27.4749 158.137 24.2683 143.076 23.9156C139.222 23.309 136.929 21.4654 134.32 18.663C132.608 15.0573 132.543 11.9061 133.112 7.98467C136.028 1.5985 141.342 0.0787582 147.833 0.264802Z" fill="#237E6C"/>
</svg>
