<svg width="24" height="24" viewBox="0 0 24 24" fill="none" xmlns="http://www.w3.org/2000/svg">
    <g clip-path="url(#clip0)">
        <path d="M12.0072 21.0443C9.09073 21.0443 6.41245 19.9953 4.04691 17.9265C2.12137 16.2427 0.887425 14.2754 0.323277 13.2526C-0.111049 12.4652 -0.107387 11.527 0.333165 10.7426C0.906834 9.72122 2.15708 7.75632 4.085 6.07339C6.45731 4.00284 9.12278 2.95309 12.0072 2.95309C14.8928 2.95309 17.5573 4.00375 19.9264 6.07578C21.8515 7.75925 23.0978 9.72452 23.6692 10.7461C24.1068 11.5283 24.1107 12.464 23.6791 13.2491C23.4186 13.7234 22.982 14.4594 22.382 15.2732C22.0749 15.6899 21.4881 15.7785 21.0713 15.4715C20.6546 15.1642 20.566 14.5774 20.873 14.1606C21.4119 13.4298 21.8028 12.7707 22.0361 12.3462C22.154 12.1314 22.1529 11.8755 22.0332 11.6614C20.8836 9.60678 17.6057 4.82773 12.0072 4.82773C6.40934 4.82773 3.12149 9.60605 1.96775 11.6605C1.84726 11.8751 1.84617 12.1318 1.96482 12.347C3.09623 14.3983 6.33994 19.1693 12.0072 19.1693C14.0939 19.1693 16.0535 18.5171 17.8316 17.2306C18.2511 16.9272 18.8371 17.0213 19.1405 17.4406C19.4441 17.8601 19.35 18.446 18.9306 18.7496C16.826 20.2721 14.4966 21.0443 12.0072 21.0443ZM17.5306 11.9987C17.5306 8.94925 15.0497 6.46835 12.0003 6.46835C8.95084 6.46835 6.47013 8.94925 6.47013 11.9987C6.47013 15.0481 8.95102 17.5288 12.0003 17.5288C15.0497 17.5288 17.5306 15.0481 17.5306 11.9987ZM15.656 11.9987C15.656 14.0143 14.0161 15.6542 12.0003 15.6542C9.98465 15.6542 8.34476 14.0143 8.34476 11.9987C8.34476 9.98306 9.98465 8.34317 12.0003 8.34317C14.0161 8.34317 15.656 9.98306 15.656 11.9987ZM13.0517 12.2532C12.3328 12.205 11.7597 11.6041 11.743 10.8838C11.7428 10.8779 11.7427 10.8719 11.7427 10.866C11.7383 10.4568 11.2853 10.218 10.9469 10.4482C10.4135 10.8111 10.0771 11.4417 10.1313 12.1468C10.2016 13.0596 10.9394 13.7975 11.8521 13.8676C12.5573 13.9218 13.1879 13.5855 13.5508 13.0523C13.7808 12.7141 13.5426 12.2607 13.1335 12.2563C13.1064 12.2561 13.0791 12.255 13.0517 12.2532Z" fill="#555B6F"/>
    </g>
    <defs>
        <clipPath id="clip0">
            <rect width="24" height="24" fill="white"/>
        </clipPath>
    </defs>
</svg>